<svg viewBox="0 0 6000 1000" xmlns="http://www.w3.org/2000/svg" overflow="visible" height="100%"><defs><clipPath id="e9efbdf6-35c0-41f0-a4c2-80c1de3fa4b4"><path fill="black" d="M-46326.098630904715,1020 v -145 c 6000,0 6000,-875 12000,-875 c 6000,0 6000, 875 12000, 875 c 6000,0 6000,-875 12000,-875 c 6000,0 6000, 875 12000, 875 c 6000,0 6000,-875 12000,-875 c 6000,0 6000, 875 12000, 875 v 145 L 48000,1020 L 0,1020 z" clip-path="url(#)"><animate attributeName="d" values="M-46326.098630904715,1020 v -145 c 6000,0 6000,-875 12000,-875 c 6000,0 6000, 875 12000, 875 c 6000,0 6000,-875 12000,-875 c 6000,0 6000, 875 12000, 875 c 6000,0 6000,-875 12000,-875 c 6000,0 6000, 875 12000, 875 v 145 L 48000,1020 L 0,1020 z;M-22326.098630904715,1020 v -145 c 6000,0 6000,-875 12000,-875 c 6000,0 6000, 875 12000, 875 c 6000,0 6000,-875 12000,-875 c 6000,0 6000, 875 12000, 875 c 6000,0 6000,-875 12000,-875 c 6000,0 6000, 875 12000, 875 v 145 L 48000,1020 L 0,1020 z" dur="27.39554439277886s" keyTimes="0;1" repeatCount="indefinite"></animate></path></clipPath><clipPath id="7eaa9623-f52c-46a9-876f-0b9e4899c8cc"><path fill="black" d="M-4048.712532178376,1020 v -20 c 6000,0 6000,-875 12000,-875 c 6000,0 6000, 875 12000, 875 c 6000,0 6000,-875 12000,-875 c 6000,0 6000, 875 12000, 875 c 6000,0 6000,-875 12000,-875 c 6000,0 6000, 875 12000, 875 v 20 L 48000,1020 L 0,1020 z" clip-path="url(#e9efbdf6-35c0-41f0-a4c2-80c1de3fa4b4)"><animate attributeName="d" values="M-4048.712532178376,1020 v -20 c 6000,0 6000,-875 12000,-875 c 6000,0 6000, 875 12000, 875 c 6000,0 6000,-875 12000,-875 c 6000,0 6000, 875 12000, 875 c 6000,0 6000,-875 12000,-875 c 6000,0 6000, 875 12000, 875 v 20 L 48000,1020 L 0,1020 z;M-28048.712532178375,1020 v -20 c 6000,0 6000,-875 12000,-875 c 6000,0 6000, 875 12000, 875 c 6000,0 6000,-875 12000,-875 c 6000,0 6000, 875 12000, 875 c 6000,0 6000,-875 12000,-875 c 6000,0 6000, 875 12000, 875 v 20 L 48000,1020 L 0,1020 z" dur="37.46578563787773s" keyTimes="0;1" repeatCount="indefinite"></animate></path></clipPath></defs><pattern id="88e490ab-0155-47cc-a257-25048fe87a63" viewBox="0 0 24000 1000" width="24000" height="1000" patternUnits="userSpaceOnUse"><path fill="#2d41b4" d="M-46326.098630904715,1020 v -145 c 6000,0 6000,-875 12000,-875 c 6000,0 6000, 875 12000, 875 c 6000,0 6000,-875 12000,-875 c 6000,0 6000, 875 12000, 875 c 6000,0 6000,-875 12000,-875 c 6000,0 6000, 875 12000, 875 v 145 L 48000,1020 L 0,1020 z" style="opacity: 0.5;"><animate attributeName="d" values="M-46326.098630904715,1020 v -145 c 6000,0 6000,-875 12000,-875 c 6000,0 6000, 875 12000, 875 c 6000,0 6000,-875 12000,-875 c 6000,0 6000, 875 12000, 875 c 6000,0 6000,-875 12000,-875 c 6000,0 6000, 875 12000, 875 v 145 L 48000,1020 L 0,1020 z;M-22326.098630904715,1020 v -145 c 6000,0 6000,-875 12000,-875 c 6000,0 6000, 875 12000, 875 c 6000,0 6000,-875 12000,-875 c 6000,0 6000, 875 12000, 875 c 6000,0 6000,-875 12000,-875 c 6000,0 6000, 875 12000, 875 v 145 L 48000,1020 L 0,1020 z" dur="27.39554439277886s" keyTimes="0;1" repeatCount="indefinite"></animate></path><path fill="#2d41b4" d="M-4048.712532178376,1020 v -20 c 6000,0 6000,-875 12000,-875 c 6000,0 6000, 875 12000, 875 c 6000,0 6000,-875 12000,-875 c 6000,0 6000, 875 12000, 875 c 6000,0 6000,-875 12000,-875 c 6000,0 6000, 875 12000, 875 v 20 L 48000,1020 L 0,1020 z" style="opacity: 0.5;"><animate attributeName="d" values="M-4048.712532178376,1020 v -20 c 6000,0 6000,-875 12000,-875 c 6000,0 6000, 875 12000, 875 c 6000,0 6000,-875 12000,-875 c 6000,0 6000, 875 12000, 875 c 6000,0 6000,-875 12000,-875 c 6000,0 6000, 875 12000, 875 v 20 L 48000,1020 L 0,1020 z;M-28048.712532178375,1020 v -20 c 6000,0 6000,-875 12000,-875 c 6000,0 6000, 875 12000, 875 c 6000,0 6000,-875 12000,-875 c 6000,0 6000, 875 12000, 875 c 6000,0 6000,-875 12000,-875 c 6000,0 6000, 875 12000, 875 v 20 L 48000,1020 L 0,1020 z" dur="37.46578563787773s" keyTimes="0;1" repeatCount="indefinite"></animate></path><rect x="0" y="0" width="24000" height="1000" fill="#2d41b4" clip-path="url(#7eaa9623-f52c-46a9-876f-0b9e4899c8cc)"></rect><rect x="-24000" y="1000" width="72000" height="1000" fill="#2d41b4"></rect></pattern><rect x="-24000" y="-500" width="400000000000" height="1000" fill="#0000"></rect><rect fill="url(#88e490ab-0155-47cc-a257-25048fe87a63)" x="0" y="10" width="400000000000" height="999"></rect></svg>
