<svg viewBox="0 0 6000 1000" style="transform: scaleY(-1)" xmlns="http://www.w3.org/2000/svg" overflow="visible"><defs><clipPath id="130c9547-fa07-44fd-b082-8a2ca813ba2b"><path fill="black" d="M-12505.293959993269,1020 v -145 c 6000,0 6000,-875 12000,-875 c 6000,0 6000, 875 12000, 875 c 6000,0 6000,-875 12000,-875 c 6000,0 6000, 875 12000, 875 c 6000,0 6000,-875 12000,-875 c 6000,0 6000, 875 12000, 875 v 145 L 48000,1020 L 0,1020 z" clip-path="url(#)"><animate attributeName="d" values="M-12505.293959993269,1020 v -145 c 6000,0 6000,-875 12000,-875 c 6000,0 6000, 875 12000, 875 c 6000,0 6000,-875 12000,-875 c 6000,0 6000, 875 12000, 875 c 6000,0 6000,-875 12000,-875 c 6000,0 6000, 875 12000, 875 v 145 L 48000,1020 L 0,1020 z;M-36505.29395999327,1020 v -145 c 6000,0 6000,-875 12000,-875 c 6000,0 6000, 875 12000, 875 c 6000,0 6000,-875 12000,-875 c 6000,0 6000, 875 12000, 875 c 6000,0 6000,-875 12000,-875 c 6000,0 6000, 875 12000, 875 v 145 L 48000,1020 L 0,1020 z" dur="40.579474040080385s" keyTimes="0;1" repeatCount="indefinite"></animate></path></clipPath><clipPath id="14231518-908f-4e5c-8af6-e70845b27108"><path fill="black" d="M-29042.121526581614,1020 v -20 c 6000,0 6000,-875 12000,-875 c 6000,0 6000, 875 12000, 875 c 6000,0 6000,-875 12000,-875 c 6000,0 6000, 875 12000, 875 c 6000,0 6000,-875 12000,-875 c 6000,0 6000, 875 12000, 875 v 20 L 48000,1020 L 0,1020 z" clip-path="url(#130c9547-fa07-44fd-b082-8a2ca813ba2b)"><animate attributeName="d" values="M-29042.121526581614,1020 v -20 c 6000,0 6000,-875 12000,-875 c 6000,0 6000, 875 12000, 875 c 6000,0 6000,-875 12000,-875 c 6000,0 6000, 875 12000, 875 c 6000,0 6000,-875 12000,-875 c 6000,0 6000, 875 12000, 875 v 20 L 48000,1020 L 0,1020 z;M-5042.121526581615,1020 v -20 c 6000,0 6000,-875 12000,-875 c 6000,0 6000, 875 12000, 875 c 6000,0 6000,-875 12000,-875 c 6000,0 6000, 875 12000, 875 c 6000,0 6000,-875 12000,-875 c 6000,0 6000, 875 12000, 875 v 20 L 48000,1020 L 0,1020 z" dur="40.35034599785615s" keyTimes="0;1" repeatCount="indefinite"></animate></path></clipPath></defs><pattern id="431fcd7d-600c-4fe0-9ab3-3965d345009d" viewBox="0 0 24000 1000" width="24000" height="1000" patternUnits="userSpaceOnUse"><path style="opacity: 0.5;" fill="#2d41b4" d="M-12505.293959993269,1020 v -145 c 6000,0 6000,-875 12000,-875 c 6000,0 6000, 875 12000, 875 c 6000,0 6000,-875 12000,-875 c 6000,0 6000, 875 12000, 875 c 6000,0 6000,-875 12000,-875 c 6000,0 6000, 875 12000, 875 v 145 L 48000,1020 L 0,1020 z"><animate attributeName="d" values="M-12505.293959993269,1020 v -145 c 6000,0 6000,-875 12000,-875 c 6000,0 6000, 875 12000, 875 c 6000,0 6000,-875 12000,-875 c 6000,0 6000, 875 12000, 875 c 6000,0 6000,-875 12000,-875 c 6000,0 6000, 875 12000, 875 v 145 L 48000,1020 L 0,1020 z;M-36505.29395999327,1020 v -145 c 6000,0 6000,-875 12000,-875 c 6000,0 6000, 875 12000, 875 c 6000,0 6000,-875 12000,-875 c 6000,0 6000, 875 12000, 875 c 6000,0 6000,-875 12000,-875 c 6000,0 6000, 875 12000, 875 v 145 L 48000,1020 L 0,1020 z" dur="40.579474040080385s" keyTimes="0;1" repeatCount="indefinite"></animate></path><path style="opacity: 0.5;" fill="#2d41b4" d="M-29042.121526581614,1020 v -20 c 6000,0 6000,-875 12000,-875 c 6000,0 6000, 875 12000, 875 c 6000,0 6000,-875 12000,-875 c 6000,0 6000, 875 12000, 875 c 6000,0 6000,-875 12000,-875 c 6000,0 6000, 875 12000, 875 v 20 L 48000,1020 L 0,1020 z"><animate attributeName="d" values="M-29042.121526581614,1020 v -20 c 6000,0 6000,-875 12000,-875 c 6000,0 6000, 875 12000, 875 c 6000,0 6000,-875 12000,-875 c 6000,0 6000, 875 12000, 875 c 6000,0 6000,-875 12000,-875 c 6000,0 6000, 875 12000, 875 v 20 L 48000,1020 L 0,1020 z;M-5042.121526581615,1020 v -20 c 6000,0 6000,-875 12000,-875 c 6000,0 6000, 875 12000, 875 c 6000,0 6000,-875 12000,-875 c 6000,0 6000, 875 12000, 875 c 6000,0 6000,-875 12000,-875 c 6000,0 6000, 875 12000, 875 v 20 L 48000,1020 L 0,1020 z" dur="40.35034599785615s" keyTimes="0;1" repeatCount="indefinite"></animate></path><rect x="0" y="0" width="24000" height="1000" fill="#2d41b4" clip-path="url(#14231518-908f-4e5c-8af6-e70845b27108)"></rect><rect x="-24000" y="1000" width="72000" height="1000" fill="#2d41b4"></rect></pattern><rect x="-24000" y="-500" width="400000000000" height="1000" fill="#0000"></rect><rect fill="url(#431fcd7d-600c-4fe0-9ab3-3965d345009d)" x="0" y="10" width="400000000000" height="999"></rect></svg>
